# xmcd
#
# Track frame offsets: 
#        150
#        32132
#        47744
#        66287
#        89041
#        108427
#        122294
#        138612
#        150369
#        168452
#        184661
#        204200
#
# Disc length: 2903 seconds
#
# Revision: 2
# Processed by: cddbd v1.5.2PL0 Copyright (c) Steve Scherf et al.
# Submitted via: ExactAudioCopy v0.99pb4
#
DISCID=9f0b550c
DTITLE=Mr.boogie woogie - absoo-boogin-lootly
DYEAR=1900
DGENRE=boogie woogie
TTITLE0=Tribute to Muddy Waters
TTITLE1=Backseat Boogie
TTITLE2=No Fuses Left
TTITLE3=Swanee River Boogie
TTITLE4=K.O. Boogie
TTITLE5=Meade's Special
TTITLE6=Boogie Trap
TTITLE7=The Brush
TTITLE8=Pianorepairman Boogie
TTITLE9=Boogie Down Easy
TTITLE10=Diva and the Boogie Man
TTITLE11=Down South
EXTD=
EXTT0=
EXTT1=
EXTT2=
EXTT3=
EXTT4=
EXTT5=
EXTT6=
EXTT7=
EXTT8=
EXTT9=
EXTT10=
EXTT11=
PLAYORDER=
